<svg width="17" height="16" fill="none" xmlns="http://www.w3.org/2000/svg"><path fill-rule="evenodd" clip-rule="evenodd" d="M1.313.49a.667.667 0 0 0 0 1.333h2.06l.54 2.696a.662.662 0 0 0 .011.056l1.09 5.44a1.97 1.97 0 0 0 1.962 1.586h6.325a1.97 1.97 0 0 0 1.963-1.586l.001-.005 1.043-5.47a.667.667 0 0 0-.655-.791H5.12l-.545-2.724A.667.667 0 0 0 3.92.49H1.313ZM6.32 9.754l-.935-4.672h9.462l-.892 4.675a.637.637 0 0 1-.636.51H6.958a.637.637 0 0 1-.637-.512v-.001Zm-1.11 4.44a1.318 1.318 0 1 1 2.636 0 1.318 1.318 0 0 1-2.637 0Zm7.17 0a1.318 1.318 0 1 1 2.636 0 1.318 1.318 0 0 1-2.637 0Z" fill="#2D3440"/></svg>