<svg width="16" height="16" fill="none" xmlns="http://www.w3.org/2000/svg"><path fill-rule="evenodd" clip-rule="evenodd" d="M1.615 1.615a.962.962 0 0 1 .68-.282h8.96a.667.667 0 1 0 0-1.333h-8.96A2.295 2.295 0 0 0 0 2.296v11.407A2.297 2.297 0 0 0 2.296 16h11.402a2.295 2.295 0 0 0 2.295-2.296V8a.667.667 0 1 0-1.333 0v5.703a.963.963 0 0 1-.962.963H2.296a.962.962 0 0 1-.963-.963V2.296c0-.255.102-.5.282-.68Zm14.202.325a.667.667 0 1 0-.968-.917L7.614 8.66 5.782 6.727a.667.667 0 0 0-.968.917l2.316 2.444a.667.667 0 0 0 .968 0l7.719-8.148Z" fill="#FCFCFC"/></svg>