<svg width="16" height="16" fill="none" xmlns="http://www.w3.org/2000/svg"><g clip-path="url(#a)"><path fill-rule="evenodd" clip-rule="evenodd" d="M2.3 1.333h-.004a.963.963 0 0 0-.963.963v11.406a.963.963 0 0 0 .963.963h11.406a.963.963 0 0 0 .964-.997V2.296a.91.91 0 0 0-.282-.68c-.156-.156-.229-.205-.286-.23-.055-.024-.153-.053-.395-.053H2.3Zm13.539 13.21a2.297 2.297 0 0 1-2.137 1.455H2.296A2.296 2.296 0 0 1 0 13.702V2.296A2.296 2.296 0 0 1 1.458.158.664.664 0 0 1 1.89 0h11.813c.337 0 .643.038.934.166.287.127.5.318.69.507.481.481.672 1.057.672 1.623V14.11c0 .166-.06.318-.16.434Z" fill="#FCFCFC"/></g><defs><clipPath id="a"><path fill="#fff" d="M0 0h16v16H0z"/></clipPath></defs></svg>