<svg width="48" height="48" fill="none" xmlns="http://www.w3.org/2000/svg"><circle cx="24" cy="24" r="23" stroke="#2D3440" stroke-width="2"/><path d="M34.749 18.287a12.053 12.053 0 0 0 .458-9.553 1.007 1.007 0 0 0-.337-.479 1.07 1.07 0 0 0-1.14-.109c-.18.093-.33.234-.427.407-1.322 2.285-4.163 5.969-6.244 6.14h-.093a17.336 17.336 0 0 0-2.904-.302c-.978.019-1.953.12-2.913.302h-.073c-2.081-.161-4.963-3.845-6.295-6.13a1.021 1.021 0 0 0-.425-.434 1.07 1.07 0 0 0-1.175.104c-.161.13-.279.305-.336.5a11.996 11.996 0 0 0 .406 9.544c-1.81.221-4.11.785-4.943 2.204a2.15 2.15 0 0 0 0 2.215c.239.411.593.748 1.023.97.43.224.916.323 1.402.288a7.575 7.575 0 0 0 2.518-.483 8.446 8.446 0 0 0 .135 1.62 34.441 34.441 0 0 0 1.821 5.235c.198.473.416 1.007.53 1.329-.34.808-.609 1.643-.8 2.496-.05.603.028 1.21.229 1.782.2.573.518 1.1.936 1.55C17.611 39.154 20.264 40 24.032 40c3.766 0 6.43-.846 7.928-2.517.42-.448.74-.975.94-1.549.2-.573.278-1.18.226-1.783a14.586 14.586 0 0 0-.791-2.496c.114-.322.333-.846.52-1.329a32.616 32.616 0 0 0 1.821-5.234 7.79 7.79 0 0 0 .146-1.621c.777.294 1.6.457 2.435.483.487.035.975-.065 1.406-.288.43-.222.788-.559 1.029-.97a2.15 2.15 0 0 0 0-2.215c-.822-1.369-3.122-1.973-4.943-2.194Zm-.989-6.684a9.263 9.263 0 0 1-1.04 6.15c-.26-.306-.539-.599-.832-.875a7.487 7.487 0 0 0-1.988-1.269 17.355 17.355 0 0 0 3.86-4.006Zm-19.468 0a16.957 16.957 0 0 0 3.85 4.026 6.815 6.815 0 0 0-1.967 1.269c-.298.276-.58.568-.843.875a9.283 9.283 0 0 1-1.04-6.17Zm-4.1 10.127c-.094-.162-.063-.212 0-.252.24-.393 1.446-1.007 3.756-1.238-.114.292-.218.584-.312.886-1.353.674-3.163 1.097-3.444.604Zm22.434 3.02c-.436 1.652-.999 3.27-1.685 4.841a19.56 19.56 0 0 0-.718 1.883l-.063.312.115.282c.329.767.597 1.558.8 2.365.012.318-.042.634-.158.931-.116.298-.292.57-.518.8-.749.836-2.455 1.823-6.357 1.823s-5.609-1.007-6.358-1.822a2.421 2.421 0 0 1-.677-1.732c.209-.807.48-1.598.812-2.365l.114-.282-.072-.312a15.966 15.966 0 0 0-.708-1.893 32.414 32.414 0 0 1-1.706-4.872 7.002 7.002 0 0 1 .283-3.465 7.201 7.201 0 0 1 1.923-2.937c1.57-1.53 5.13-1.872 6.368-1.883 1.238-.01 4.724.343 6.389 1.903a7.116 7.116 0 0 1 1.935 2.922 6.917 6.917 0 0 1 .281 3.46v.04Zm5.203-3.02c-.27.483-2.081.07-3.371-.595a10.09 10.09 0 0 0-.302-.895c2.29.231 3.486.845 3.715 1.238.052.04.072.09-.021.252h-.02Z" fill="#2D3440"/></svg>