<svg width="24" height="24" fill="none" xmlns="http://www.w3.org/2000/svg"><path d="M20.062 7.715A9.037 9.037 0 0 0 20.405.55a.754.754 0 0 0-.253-.359.795.795 0 0 0-.855-.081.768.768 0 0 0-.32.304c-.991 1.714-3.122 4.477-4.683 4.606h-.07a13.005 13.005 0 0 0-2.177-.227c-.734.014-1.465.09-2.185.227h-.055C8.247 4.899 6.084 2.136 5.085.422a.766.766 0 0 0-.318-.325.802.802 0 0 0-.88.077.753.753 0 0 0-.253.376 8.997 8.997 0 0 0 .304 7.158C2.58 7.874.856 8.296.231 9.36a1.612 1.612 0 0 0 0 1.66c.179.31.445.562.767.73.322.166.687.241 1.052.215a5.68 5.68 0 0 0 1.888-.363c-.005.408.029.815.102 1.216a25.83 25.83 0 0 0 1.365 3.926c.149.354.313.755.398.996a10.96 10.96 0 0 0-.6 1.873c-.038.452.02.906.171 1.336.15.43.39.825.703 1.163C7.208 23.366 9.198 24 12.023 24c2.825 0 4.823-.634 5.947-1.887.315-.337.555-.732.705-1.162.15-.43.208-.885.17-1.337-.142-.64-.34-1.267-.594-1.873.086-.241.25-.634.39-.996a24.462 24.462 0 0 0 1.366-3.926c.079-.4.115-.808.11-1.216.582.22 1.2.343 1.826.363a1.99 1.99 0 0 0 1.054-.216c.323-.167.591-.42.772-.728a1.613 1.613 0 0 0 0-1.661c-.617-1.027-2.341-1.48-3.707-1.646Zm-.742-5.013a6.948 6.948 0 0 1-.78 4.613 8.293 8.293 0 0 0-.624-.657 5.615 5.615 0 0 0-1.491-.951 13.015 13.015 0 0 0 2.895-3.005Zm-14.601 0a12.719 12.719 0 0 0 2.887 3.02 5.111 5.111 0 0 0-1.475.951 7.977 7.977 0 0 0-.632.657 6.962 6.962 0 0 1-.78-4.628Zm-3.075 7.595c-.07-.12-.047-.158 0-.189.18-.294 1.085-.755 2.817-.928a9.602 9.602 0 0 0-.234.664c-1.015.506-2.372.823-2.583.453Zm16.826 2.265a24.983 24.983 0 0 1-1.265 3.632c-.203.461-.383.932-.538 1.411l-.047.234.086.212c.247.575.448 1.169.6 1.774.01.238-.032.475-.119.698a1.797 1.797 0 0 1-.387.6c-.562.627-1.842 1.367-4.769 1.367-2.926 0-4.206-.755-4.768-1.366a1.816 1.816 0 0 1-.507-1.299c.156-.605.36-1.199.608-1.774l.086-.212-.054-.234a11.982 11.982 0 0 0-.531-1.42 24.313 24.313 0 0 1-1.28-3.653 5.253 5.253 0 0 1 .212-2.6A5.401 5.401 0 0 1 7.24 7.73c1.179-1.147 3.848-1.404 4.777-1.412.928-.007 3.543.257 4.791 1.427a5.335 5.335 0 0 1 1.452 2.192c.29.835.362 1.726.21 2.595v.03Zm3.902-2.265c-.203.362-1.561.053-2.529-.445a7.528 7.528 0 0 0-.226-.672c1.717.173 2.614.634 2.786.928.039.03.055.068-.016.19h-.015Z" fill="#2D3440"/></svg>