<svg width="28" height="28" fill="none" xmlns="http://www.w3.org/2000/svg"><path fill-rule="evenodd" clip-rule="evenodd" d="M26 14c0 6.627-5.373 12-12 12S2 20.627 2 14 7.373 2 14 2s12 5.373 12 12Zm-9.571.9H15V20h-2.286v-5.1H11v-2.4h1.714v-1.68c0-1.826 1.102-2.82 2.653-2.82.743 0 1.447.058 1.633.084V10.1h-.857C15 10.1 15 10.682 15 11.3v1.2h2l-.571 2.4Z" fill="#FCFCFC"/><path d="M14 24C8.477 24 4 19.523 4 14H0c0 7.732 6.268 14 14 14v-4Zm10-10c0 5.523-4.477 10-10 10v4c7.732 0 14-6.268 14-14h-4ZM14 4c5.523 0 10 4.477 10 10h4c0-7.732-6.268-14-14-14v4Zm0-4C6.268 0 0 6.268 0 14h4C4 8.477 8.477 4 14 4V0Z" fill="#FCFCFC" fill-opacity=".2"/></svg>