<svg width="17" height="16" fill="none" xmlns="http://www.w3.org/2000/svg"><path fill-rule="evenodd" clip-rule="evenodd" d="M.646 1.156c0-.368.298-.666.667-.666H3.92c.318 0 .591.224.654.536l.545 2.723h10.535a.667.667 0 0 1 .654.792l-1.043 5.469v.005A1.97 1.97 0 0 1 13.3 11.6H6.976a1.97 1.97 0 0 1-1.963-1.586l-1.089-5.44a.662.662 0 0 1-.01-.056l-.54-2.696H1.313a.667.667 0 0 1-.667-.667Zm5.883 11.72a1.318 1.318 0 1 0 0 2.636 1.318 1.318 0 0 0 0-2.636Zm7.17 0a1.318 1.318 0 1 0 0 2.636 1.318 1.318 0 0 0 0-2.636Z" fill="#2D3440"/></svg>