<svg width="12" height="24" fill="none" xmlns="http://www.w3.org/2000/svg"><path d="M6 0A6.007 6.007 0 0 0 .042 5.294H0V17.21h12V5.294h-.042A6.006 6.006 0 0 0 6 0Zm4.588 15.798H1.412V9.289a1.264 1.264 0 0 0 1.087.452c.91 0 1.503-.508 1.503-1.15v-.615a.607.607 0 1 1 1.207 0V10.3a1.32 1.32 0 0 0 1.497 1.292 1.313 1.313 0 0 0 1.496-1.236v-1.56a.953.953 0 1 1 1.9 0 .281.281 0 0 0 0 .064.797.797 0 0 0 .472.628v6.353l.014-.042ZM4.941 22.941a1.059 1.059 0 0 0 2.118 0v-5.026H4.94v5.026Z" fill="#2D3440"/></svg>