<svg width="28" height="28" fill="none" xmlns="http://www.w3.org/2000/svg"><path fill-rule="evenodd" clip-rule="evenodd" d="M26 14c0 6.627-5.373 12-12 12S2 20.627 2 14 7.373 2 14 2s12 5.373 12 12Zm-9.527-5.964C15.833 8.006 15.63 8 14 8s-1.834.008-2.473.036c-.64.03-1.074.13-1.457.279-.4.15-.763.387-1.063.692-.306.3-.542.662-.692 1.063-.149.383-.249.817-.279 1.457C8.006 12.167 8 12.37 8 14s.008 1.834.036 2.473c.03.64.13 1.075.279 1.457.15.4.387.763.692 1.063.3.306.662.542 1.063.692.383.148.818.249 1.457.279.64.03.843.036 2.473.036s1.834-.008 2.473-.036c.64-.03 1.075-.13 1.457-.279.4-.15.763-.387 1.063-.692.306-.3.542-.662.692-1.063.148-.383.249-.818.279-1.457.03-.64.036-.843.036-2.473s-.008-1.834-.036-2.473c-.03-.64-.13-1.075-.279-1.457-.15-.4-.387-.763-.692-1.063a2.925 2.925 0 0 0-1.063-.692c-.383-.149-.818-.249-1.457-.279Zm-4.594 3.843a3 3 0 1 1 4.242 4.242 3 3 0 0 1-4.242-4.242Zm5.801-1.56a.75.75 0 1 1-1.06 1.061.75.75 0 0 1 1.06-1.06Zm-2.407 2.408a1.8 1.8 0 1 0-2.546 2.546 1.8 1.8 0 0 0 2.546-2.546Z" fill="#FCFCFC"/><path d="M14 24C8.477 24 4 19.523 4 14H0c0 7.732 6.268 14 14 14v-4Zm10-10c0 5.523-4.477 10-10 10v4c7.732 0 14-6.268 14-14h-4ZM14 4c5.523 0 10 4.477 10 10h4c0-7.732-6.268-14-14-14v4Zm0-4C6.268 0 0 6.268 0 14h4C4 8.477 8.477 4 14 4V0Z" fill="#FCFCFC" fill-opacity=".2"/></svg>