<svg width="16" height="16" fill="none" xmlns="http://www.w3.org/2000/svg"><path fill-rule="evenodd" clip-rule="evenodd" d="M16 8A8 8 0 1 1 0 8a8 8 0 0 1 16 0ZM9.649 4.024C9.222 4.004 9.087 4 8 4s-1.222.005-1.649.024c-.426.02-.716.087-.971.186-.267.1-.509.258-.709.461-.203.2-.36.442-.461.709-.1.255-.166.545-.186.971C4.004 6.778 4 6.913 4 8s.005 1.222.024 1.649c.02.426.087.716.186.971.1.267.258.509.461.709.2.203.442.36.709.461.255.099.545.166.971.186.427.02.562.024 1.649.024s1.222-.005 1.649-.024c.426-.02.716-.087.971-.186.267-.1.509-.258.709-.461.203-.2.36-.442.461-.709.099-.255.166-.545.186-.971.02-.427.024-.562.024-1.649s-.005-1.222-.024-1.649a2.955 2.955 0 0 0-.186-.971 1.963 1.963 0 0 0-.461-.709 1.95 1.95 0 0 0-.709-.461c-.255-.1-.545-.166-.971-.186ZM6.586 6.586a2 2 0 1 1 2.828 2.828 2 2 0 0 1-2.828-2.828Zm3.868-1.04a.5.5 0 1 1-.708.708.5.5 0 0 1 .708-.708ZM8.849 7.151A1.2 1.2 0 1 0 7.15 8.85 1.2 1.2 0 0 0 8.85 7.15Z" fill="#2D3440"/></svg>