<svg width="14" height="24" fill="none" xmlns="http://www.w3.org/2000/svg"><path d="M13.993 13.864C13.688 7.057 7.757.466 7.493.179h-.034L7.377.086 7.29.029h-.38L6.782 0h-.034l-.122.086-.074.064h-.034C6.252.466.32 7.064.003 13.864c-.004.05-.004.1 0 .15v.781c.257 7.38 6.778 9.185 6.832 9.2h.17a.686.686 0 0 0 .17 0c.06 0 6.574-1.856 6.825-9.2v-.78c0-.05-.007-.101-.007-.151ZM1.792 11.349a16.67 16.67 0 0 0 4.535 2.945v3.26c-1.66-.867-4.216-2.408-4.969-3.762.061-.827.2-1.645.414-2.443h.02Zm1.356-3.654a8.33 8.33 0 0 0 3.179 2.192v2.823A13.01 13.01 0 0 1 2.26 9.844c.258-.733.554-1.45.888-2.15Zm8.615 2.15a12.976 12.976 0 0 1-4.067 2.865V9.887a8.335 8.335 0 0 0 3.152-2.192c.342.688.647 1.396.915 2.12v.03ZM7.696 8.367V2.637a32.422 32.422 0 0 1 2.474 3.711A6.21 6.21 0 0 1 7.683 8.34l.013.028Zm0 9.2v-3.274a16.66 16.66 0 0 0 4.555-2.93c.208.8.34 1.621.393 2.45-.745 1.332-3.3 2.866-4.962 3.725l.014.029Zm-1.356-9.2a6.155 6.155 0 0 1-2.487-2.02 32.442 32.442 0 0 1 2.474-3.747l.013 5.767ZM1.5 16.056a22.622 22.622 0 0 0 4.827 3.074v3.152a8.01 8.01 0 0 1-3.163-2.463 8.64 8.64 0 0 1-1.663-3.763Zm6.183 6.233v-3.166a22.252 22.252 0 0 0 4.826-3.067 8.526 8.526 0 0 1-1.65 3.777 7.896 7.896 0 0 1-3.176 2.457Z" fill="#2D3440"/></svg>