<svg width="48" height="48" fill="none" xmlns="http://www.w3.org/2000/svg"><circle cx="24" cy="24" r="23" stroke="#2D3440" stroke-width="2"/><path d="M33.324 26.485C32.918 17.41 25.01 8.621 24.657 8.24h-.045l-.109-.124-.117-.077h-.506L23.708 8h-.045l-.163.115-.1.086h-.044c-.353.42-8.261 9.218-8.686 18.284a1.492 1.492 0 0 0 0 .2v1.042c.344 9.84 9.038 12.247 9.11 12.266h.226c.075.01.151.01.226 0 .082 0 8.767-2.474 9.101-12.266v-1.041c0-.067-.009-.134-.009-.2Zm-16.268-3.353a22.226 22.226 0 0 0 6.046 3.926v4.347c-2.214-1.156-5.621-3.21-6.624-5.015.081-1.103.266-2.194.55-3.258h.028Zm1.808-4.872a11.106 11.106 0 0 0 4.238 2.923v3.764c-2.019-.9-3.859-2.197-5.422-3.821.343-.978.739-1.935 1.184-2.866Zm11.487 2.866a17.3 17.3 0 0 1-5.423 3.821v-3.764a11.112 11.112 0 0 0 4.203-2.923 28.79 28.79 0 0 1 1.22 2.828v.038Zm-5.423-1.968v-7.643a43.22 43.22 0 0 1 3.299 4.949 8.28 8.28 0 0 1-3.317 2.656l.018.038Zm0 12.266v-4.366a22.21 22.21 0 0 0 6.074-3.907c.276 1.068.452 2.163.524 3.267-.994 1.777-4.402 3.821-6.616 4.968l.018.038ZM23.12 19.158a8.207 8.207 0 0 1-3.316-2.694 43.263 43.263 0 0 1 3.298-4.996l.018 7.69Zm-6.453 10.25a30.164 30.164 0 0 0 6.435 4.099v4.203a10.679 10.679 0 0 1-4.216-3.285 11.519 11.519 0 0 1-2.219-5.017Zm8.243 8.311v-4.222a29.675 29.675 0 0 0 6.435-4.089 11.368 11.368 0 0 1-2.2 5.036 10.53 10.53 0 0 1-4.235 3.275Z" fill="#2D3440"/></svg>