<svg width="14" height="14" fill="none" xmlns="http://www.w3.org/2000/svg"><path fill-rule="evenodd" clip-rule="evenodd" d="M8 .667C8 .298 8.298 0 8.667 0h2.666a2 2 0 0 1 2 2v9.333a2 2 0 0 1-2 2H8.667a.667.667 0 1 1 0-1.333h2.666a.666.666 0 0 0 .667-.667V2a.666.666 0 0 0-.667-.667H8.667A.667.667 0 0 1 8 .667ZM4.862 2.862c.26-.26.682-.26.943 0L9.134 6.19a.673.673 0 0 1 .2.476.664.664 0 0 1-.2.476l-3.33 3.328a.667.667 0 1 1-.942-.942l2.195-2.196H.667A.667.667 0 1 1 .667 6h6.39L4.862 3.805a.667.667 0 0 1 0-.943Z" fill="#2D3440"/></svg>