<svg width="93" height="27" fill="none" xmlns="http://www.w3.org/2000/svg"><g clip-path="url(#a)" fill="#2D3440"><path d="M0 10.416V12.5h1.988v-2.083H0ZM9.419 3.663c-1.262 0-2.282.573-2.922 1.406h-.069V0H4.786v12.5h1.642V8.212c0-1.72 1.072-2.952 2.645-2.952 1.486 0 2.35 1.111 2.35 2.604V12.5h1.643V7.57c0-2.38-1.47-3.907-3.647-3.907ZM21.525 3.906h-3.889V.868h-1.642v3.038H14.44v1.597h1.555v4.844c0 1.389.778 2.153 2.178 2.153h3.353v-1.615h-3.024c-.554 0-.865-.312-.865-.85V5.503h3.89V3.906ZM33.255 3.68c-1.314 0-2.316.643-2.87 1.667h-.051C29.832 4.34 28.899 3.68 27.62 3.68c-1.14 0-2.005.608-2.523 1.459h-.07V3.906h-1.572V12.5h1.642V8.09c0-1.615.846-2.795 2.126-2.83 1.21-.034 1.918.834 1.918 2.136V12.5h1.642V7.95c0-1.927 1.14-2.69 2.126-2.69 1.193 0 1.901.833 1.901 2.135V12.5h1.642V7.222c0-2.083-1.175-3.542-3.197-3.542ZM38.678 10.277c0 1.407.795 2.223 2.264 2.223h1.624v-1.598h-1.382c-.553 0-.865-.312-.865-.85V0h-1.641v10.277ZM23.375 15.936h-.069c-.64-.863-1.68-1.467-3.065-1.484-2.545-.034-4.363 1.847-4.363 4.505 0 2.675 1.852 4.556 4.346 4.521 1.42-.017 2.441-.655 3.082-1.57h.07v1.329h1.627v-8.543h-1.628v1.242Zm-2.909 5.955c-1.8 0-2.943-1.312-2.943-2.934 0-1.623 1.143-2.934 2.943-2.934 1.75 0 2.892 1.311 2.892 2.934 0 1.605-1.143 2.934-2.892 2.934ZM35.752 17.8c-.398-1.933-2.113-3.348-4.363-3.348-2.719 0-4.537 1.985-4.537 4.505 0 2.52 1.818 4.521 4.537 4.521 2.25 0 3.965-1.45 4.363-3.4h-1.714c-.346 1.088-1.368 1.83-2.632 1.83-1.766 0-2.91-1.33-2.91-2.951 0-1.623 1.144-2.934 2.91-2.934 1.316 0 2.285.776 2.632 1.777h1.714ZM44.546 15.936h-.07c-.64-.863-1.679-1.467-3.064-1.484-2.546-.034-4.364 1.847-4.364 4.505 0 2.675 1.853 4.556 4.346 4.521 1.42-.017 2.442-.655 3.083-1.57h.069v1.329h1.627v-8.543h-1.627v1.242Zm-2.91 5.955c-1.8 0-2.943-1.312-2.943-2.934 0-1.623 1.143-2.934 2.944-2.934 1.749 0 2.892 1.311 2.892 2.934 0 1.605-1.143 2.934-2.892 2.934ZM55.52 16.023h-.07c-.64-.915-1.714-1.554-3.081-1.57-2.494-.035-4.346 1.846-4.346 4.52 0 2.659 1.818 4.54 4.363 4.506 1.35-.018 2.424-.622 3.048-1.485h.086v1.243h1.628V10.81H55.52v5.212Zm-2.909 5.885c-1.8 0-2.944-1.312-2.944-2.934s1.143-2.934 2.944-2.934c1.75 0 2.892 1.329 2.892 2.934 0 1.622-1.143 2.934-2.892 2.934ZM63.345 14.452c-2.632 0-4.433 2.02-4.433 4.522 0 2.433 1.697 4.505 4.467 4.505 2.009 0 3.62-1.088 4.19-2.9h-1.713c-.381.811-1.299 1.329-2.407 1.329-1.558 0-2.667-1.036-2.788-2.364h7.082c.225-2.848-1.558-5.092-4.398-5.092Zm-.035 1.57c1.368 0 2.39.846 2.65 2.072h-5.264c.242-1.208 1.264-2.071 2.614-2.071ZM79.413 14.47c-1.316 0-2.32.638-2.875 1.656h-.052c-.502-1-1.437-1.657-2.718-1.657-1.143 0-2.009.604-2.528 1.45h-.07v-1.225h-1.575v8.543h1.645v-4.384c0-1.605.848-2.779 2.13-2.813 1.212-.034 1.922.828 1.922 2.123v5.074h1.645v-4.522c0-1.916 1.142-2.675 2.13-2.675 1.194 0 1.904.828 1.904 2.123v5.074h1.645V17.99c0-2.07-1.177-3.52-3.203-3.52ZM88.505 21.873l-2.944-7.18h-1.818l3.913 9.355-.017.034c-.277.708-.589.967-1.35.967h-2.026v1.64h2.025c1.49 0 2.286-.674 2.84-2.123l3.775-9.872h-1.68l-2.718 7.18Z"/></g><defs><clipPath id="a"><path fill="#fff" d="M0 0h93v26.711H0z"/></clipPath></defs></svg>