<svg width="137" height="56" fill="none" xmlns="http://www.w3.org/2000/svg"><path d="M52.79 37.757a3.435 3.435 0 0 0-1.914.332s-2.671 2.257-15.885-.341c-9.714-1.915-14.763-1.717-14.763-1.717s1.63-11.236 1.184-14.382a.901.901 0 0 0-.303-.6.885.885 0 0 0-.631-.218c-.971 0-1.559.377-1.559.899a42.997 42.997 0 0 1-.222 6.364 5.384 5.384 0 0 1-2.154 2.704 5.304 5.304 0 0 1-3.34.82c-4.23-.297-5.12-3.371-5.494-5.466-.374-2.094-.587-7.946.526-10.337 0 0 6.375.225 10.382-3.227 4.006-3.452 3.757-6.436 1.86-7.712-1.896-1.277-6.34-1.052-9.75 2.094a17.415 17.415 0 0 0-4.523 6.292S1.191 12.184 2.34 6.898c1.22-5.519 8.69-4.872 8.69-4.872 1.559.306 1.63.45 2.146-.072.517-.521.89-1.87-1.558-1.95C9.169-.077 1.824 1.145.417 6.07c-1.505 5.24 1.273 8.989 5.004 9.573 0 0-2.04 9.079.48 13.573a7.97 7.97 0 0 0 3.163 3.387 7.865 7.865 0 0 0 4.495 1.036c1.47 0 4.07-.827 4.808-2.023 0 0-.347 3.219-.64 4.387 0 0-6.18-.08-8.112.899-3.286 1.753-2.6 5.86-1.336 7.317 1.069 1.24 4.283 1.915 6.607.809a8.871 8.871 0 0 0 3.342-2.827 8.985 8.985 0 0 0 1.6-4.095c3.76-.195 7.526.218 11.156 1.223 5.494 1.654 13.143 3.2 15.44 3.2 2.297 0 7.123-.665 7.417-2.598.16-1.276-.312-1.941-1.05-2.175ZM14.12 7.717s2.92-2.248 4.319-.846a1.942 1.942 0 0 1 .08 2.535c-.588.773-2.137 3.218-9.492 4.431 0 0 2.315-4.098 5.093-6.12Zm.24 34.975s-4.033 2.22-4.452-.791a2.856 2.856 0 0 1 .161-1.884 2.82 2.82 0 0 1 1.3-1.361c.703-.35 1.665-.791 5.859-.639a5.72 5.72 0 0 1-.837 2.711 5.652 5.652 0 0 1-2.03 1.964Z" fill="#2D3440"/><path d="M65.514 21.334V27.527c-.07.81-.333 1.59-.765 2.275a5.009 5.009 0 0 1-1.051 1.321c-.472.414-.784-.512-.962-.899-1.237-2.616-.64-6.121-.16-8.863.223-1.312-2.413-.97-2.618.198a26.693 26.693 0 0 0-.49 7.11 1.654 1.654 0 0 0-1.193.656c-.454.98-1.78 4.234-3.41 2.93-1.175-.898-1.3-3.361-1.425-4.736a14.048 14.048 0 0 1 .73-5.627c-.053.152 1.016-2.544 1.487-1.538a3.293 3.293 0 0 1-.543 2.814c-1.397 1.06.775 1.501 1.62.854 1.604-1.214 2.672-5.133-.061-5.6-3.09-.521-4.844 2.625-5.494 5.123a16.446 16.446 0 0 0-.445 4.387c-.428.755-1.87 3.182-2.716 3.596-.997.52-.98-.207-.944-.675.036-.467.48-4.629.721-7.433a5.23 5.23 0 0 0-.445-3.281c-.383-.782-3.562-2.535-6.358.755a10.746 10.746 0 0 0-2.742 6.292c-.187.378-.392.782-.632 1.222-1.336 2.472-3.019 3.515-3.615 1.798a13.82 13.82 0 0 1-.668-5.564A34.78 34.78 0 0 0 37.84 14.08c1.336-5.986 1.087-8.962.366-9.465-.722-.503-3.785-1.744-5.628 5.618a48.41 48.41 0 0 0-1.416 16.072 39.175 39.175 0 0 1-1.095 2.184c-1.335 2.472-3.01 3.515-3.615 1.798a13.822 13.822 0 0 1-.632-5.564 34.778 34.778 0 0 0 4.506-10.562c1.38-6.067 1.104-9.043.382-9.546-.72-.503-3.784-1.744-5.618 5.618-1.834 7.362-2.2 15.389-.445 20.782 0 0 .961 3.038 2.76 2.814 1.487-.189 3.259-1.663 4.3-4.414.118.54.264 1.075.437 1.6 0 0 .961 3.038 2.76 2.814 1.22-.153 2.671-1.187 3.687-3.075.632 1.646 1.994 3.003 3.748 2.697 2.377-.431 2.867-1.735 2.867-1.735s-.044 2.14 1.478 2.14c1.354 0 2.431-.8 3.5-2.84.365-.693.578-1.097.694-1.331.312 1.933 1.104 3.65 2.671 4.341 2.672 1.169 5.004-1.051 6.376-3.245a3.88 3.88 0 0 0 .84 1.42c.378.406.839.725 1.35.936a3.308 3.308 0 0 0 1.799.057 3.33 3.33 0 0 0 1.567-.893v3.164a2.272 2.272 0 0 0-1.38.377 10.521 10.521 0 0 0-3.073 4.243 10.619 10.619 0 0 0-.658 5.213c.037.478.192.94.449 1.342.257.403.608.736 1.024.968a2.856 2.856 0 0 0 2.72.037c2.76-1.214 3.18-5.394 3.41-7.947.562-6.139.126-12.53.126-18.687 0-1.133-2.583-.603-2.583.323ZM26.933 11.267c.614-2.382 1.184-3.335 1.78-3.335.597 0 .829.638.41 2.697a53.067 53.067 0 0 1-3.641 11.46s.837-8.431 1.451-10.822Zm7.497 0c.615-2.382 1.184-3.335 1.736-3.335.553 0 .838.638.419 2.697-.419 2.058-1.78 7.748-3.642 11.46 0 0 .89-8.431 1.487-10.822Zm11.45 11.209c-.07.521-.409 3.856-.89 5.654-.48 1.798-.81 2.436-2.252 3.056-1.443.62-2.173-1.276-2.173-1.276-1.024-2.877.347-5.394 1.487-7.12 1.14-1.725 2.288-1.878 2.947-1.797a1.204 1.204 0 0 1 .746.557 1.23 1.23 0 0 1 .136.926Zm19.563 16.18a16.396 16.396 0 0 1-1.407 7.02c-.623.126-.89-.108-1.104-1.115a9.732 9.732 0 0 1 0-2.921 8.113 8.113 0 0 1 2.475-4.63c.045.567.045 1.115.036 1.646ZM82.183 18.79a9.592 9.592 0 0 1-3.077-2.183 9.696 9.696 0 0 1-2.007-3.21c-1.14-3.434 2.6-5.969 5.582-5.816 2.983.153 4.577 3.254 4.452 6.032-.053.98-.667 3.19-1.87 2.04a5.735 5.735 0 0 1-1.389-3.263c-.178-1.087-2.76-.44-2.582.701.517 3.29 4.025 6.913 7.034 3.47a6.667 6.667 0 0 0-.024-8.27 6.556 6.556 0 0 0-2.3-1.824 9.037 9.037 0 0 0-6.286-.123 9.137 9.137 0 0 0-4.87 4.015c-2.431 4.36 2.448 8.62 5.903 10.175 5.547 2.994 5.752 12.63-1.62 12.693a7.38 7.38 0 0 1-4.207-1.439 7.492 7.492 0 0 1-2.64-3.604c-.508-1.51-.25-6.787 1.78-7.191 1.612-.315 1.176-1.798-.4-1.52-3.304.648-4.524 4.953-4.203 7.965.516 4.8 4.968 7.487 9.465 7.451a8.468 8.468 0 0 0 5.502-1.829 8.613 8.613 0 0 0 3.073-4.957 8.473 8.473 0 0 0-.991-5.626 8.346 8.346 0 0 0-4.325-3.687Z" fill="#2D3440"/><path d="M98.727 33.074c-2.538-1.403-1.087-6.805-.704-8.881.25-1.34 1.38-3.407-.436-3.866-2.128-.52-4.657 1.52-6.482 3.47-.002-2.25.162-4.498.49-6.724a13.944 13.944 0 0 0 6.392-6.642c1.158-2.337 1.728-7.191-2.19-5.771-3.562 1.258-4.781 5.393-5.894 8.71a27.18 27.18 0 0 0-.971 3.928c-.355.15-.718.283-1.086.396-1.478.467-1.282 1.267.213.8l.722-.234c-.713 5.043-.232 10.328.222 15.281 0 .486 2.671 0 2.573-.701-.195-2.211-.364-4.423-.436-6.616.215-.063.41-.184.561-.35a20.15 20.15 0 0 1 2.743-2.85c.267-.243.543-.467.819-.683l.41-.306c.596-.476.712-.485.338 0a24.88 24.88 0 0 1-.552 2.544c-.49 2.697-1.897 7.991 1.193 9.69.668.342 3.072-.665 2.075-1.195Zm-5.78-21.672c.277-.8.642-1.591.98-2.365.419-.97 1.54-4.287 2.35-2.696.65 1.267-.373 3.344-.827 4.557a10.68 10.68 0 0 1-3.562 4.764 33.52 33.52 0 0 1 1.06-4.26Z" fill="#2D3440"/><path d="M108.298 26.773c0-2.958-.329-6.751-3.828-7.066-3.838-.35-5.343 3.704-5.396 6.733a.534.534 0 0 0 .311.512c0 2.832.677 6.526 4.016 6.463 3.722-.054 4.897-3.335 4.897-6.642Zm-4.452 4.925c-2.172-.899-1.976-4.683-1.834-6.508a.49.49 0 0 0-.214-.476c.268-1.798.962-4.494 2.547-3.155 1.264 1.097 1.291 3.73 1.353 5.25.054 1.06-.08 5.555-1.843 4.89h-.009ZM136.346 42.997c-.997-2.588-3.188-3.595-5.601-3.703a10.102 10.102 0 0 0-1.006-1.87c-3.481-5.204-11.744-4.494-17.345-1.797 0-.819-.08-1.637-.116-2.455a6.458 6.458 0 0 0 3.249-.581 6.52 6.52 0 0 0 2.548-2.115c1.487-2.148 1.273-5.96.686-8.369-.552-2.265-2.743-1.86-4.39-1.105a6.55 6.55 0 0 0-1.656 1.132c0-.602.098-1.213.142-1.797.098-1.385-2.529-1.034-2.618.188-.409 5.564-.267 11.11-.391 16.666a13.257 13.257 0 0 0-3.666 4.862 13.372 13.372 0 0 0-1.116 6.005c0 2.04 1.719 3.596 3.562 2.14 2.573-1.996 3.357-5.96 3.713-8.99a28.11 28.11 0 0 0 .142-4.071 12.383 12.383 0 0 1 6.754-2.061 12.377 12.377 0 0 1 6.78 1.97 6.227 6.227 0 0 1 2.022 2.428 16.179 16.179 0 0 0-4.114 1.33c-1.523.737-3.784 2.481-3.677 4.432a2.71 2.71 0 0 0 .546 1.712c.372.491.898.838 1.493.984a.794.794 0 0 0 .258.081c5.467.899 9.536-2.364 8.753-6.957 2.671 1.465 3.659 4.863 2.715 7.784-2.128 6.562-10.32 8.027-15.092 3.64-.517-.467-2.84.522-2.431.9 6.892 6.355 24.059.476 19.856-10.383Zm-26.659-1.59a14.046 14.046 0 0 1-1.015 4.62c-.222.494-.463.97-.721 1.438 0 0-.231.054-.276-.647a13.024 13.024 0 0 1 2.084-7.093c-.018.558-.036 1.124-.072 1.681Zm2.787-16.055a.7.7 0 0 0 .134-.153 12.578 12.578 0 0 1 1.692-2.256 7.024 7.024 0 0 1 1.611-1.366c.285.144.579.899.686 1.915.276 2.498.392 9.078-3.508 8.458a2.123 2.123 0 0 0-.891.153c-.009-2.283.116-4.513.276-6.75Zm11.647 21.34h-.054c-1.495-.36-1.335-1.798-1.139-2.769.436-2.274 3.178-3.497 5.44-3.595 1.149 3.236.267 7.11-4.247 6.364Z" fill="#2D3440"/></svg>