<svg width="14" height="24" fill="none" xmlns="http://www.w3.org/2000/svg"><path d="M8.392 3.802a3.975 3.975 0 0 0-1.025-2.688C6.71.4 5.82 0 4.892 0c-.929 0-1.819.4-2.475 1.114a3.975 3.975 0 0 0-1.025 2.688v11.066C.494 15.863-.006 17.202 0 18.595c-.002.892.2 1.77.586 2.557a5.256 5.256 0 0 0 1.632 1.95c.685.493 1.47.794 2.288.875a4.608 4.608 0 0 0 2.397-.407 5.029 5.029 0 0 0 1.933-1.593 5.617 5.617 0 0 0 1.006-2.398 5.835 5.835 0 0 0-.161-2.63 5.473 5.473 0 0 0-1.29-2.232V3.802Zm.125 14.793a4.14 4.14 0 0 1-.43 1.89c-.29.58-.712 1.07-1.224 1.423a3.37 3.37 0 0 1-1.707.595 3.323 3.323 0 0 1-1.757-.382 3.661 3.661 0 0 1-1.364-1.263 4.08 4.08 0 0 1-.625-1.826 4.172 4.172 0 0 1 .273-1.924c.24-.606.619-1.135 1.1-1.537V3.802c0-.607.222-1.19.618-1.62.395-.429.932-.67 1.49-.67.56 0 1.096.241 1.492.67.395.43.617 1.013.617 1.62v11.626c.47.355.853.829 1.117 1.38.264.552.401 1.165.4 1.787Z" fill="#2D3440"/><path d="M5.65 16.229V3.855a.79.79 0 0 0-.204-.534.669.669 0 0 0-.492-.222.669.669 0 0 0-.492.222.79.79 0 0 0-.204.534v12.374c-.464.178-.855.529-1.104.99a2.435 2.435 0 0 0-.257 1.531 2.32 2.32 0 0 0 .712 1.35c.376.345.853.534 1.345.534.493 0 .97-.189 1.346-.533a2.32 2.32 0 0 0 .712-1.35 2.435 2.435 0 0 0-.257-1.532 2.137 2.137 0 0 0-1.105-.99ZM14 2.956H9.825v1.511H14V2.956ZM14 5.979H9.825v1.512H14V5.979ZM14 9.003H9.825v1.511H14V9.003ZM14 12.026H9.825v1.512H14v-1.512Z" fill="#2D3440"/></svg>