<svg width="48" height="48" fill="none" xmlns="http://www.w3.org/2000/svg"><circle cx="24" cy="24" r="23" stroke="#2D3440" stroke-width="2"/><path d="M27.189 13.07c0-1.345-.492-2.635-1.367-3.585C24.947 8.535 23.76 8 22.522 8c-1.237 0-2.424.534-3.3 1.485-.875.95-1.366 2.24-1.366 3.585v14.754c-1.197 1.327-1.864 3.112-1.856 4.969a7.685 7.685 0 0 0 .782 3.41 7.007 7.007 0 0 0 2.176 2.599 6.284 6.284 0 0 0 3.05 1.168 6.144 6.144 0 0 0 3.196-.543 6.705 6.705 0 0 0 2.577-2.124 7.489 7.489 0 0 0 1.341-3.198 7.781 7.781 0 0 0-.214-3.506 7.298 7.298 0 0 0-1.72-2.976V13.069Zm.167 19.723c.01.88-.188 1.747-.575 2.52a5.017 5.017 0 0 1-1.63 1.897 4.495 4.495 0 0 1-2.276.795 4.43 4.43 0 0 1-2.343-.51 4.88 4.88 0 0 1-1.819-1.685 5.44 5.44 0 0 1-.832-2.433 5.563 5.563 0 0 1 .363-2.566 5.125 5.125 0 0 1 1.467-2.05V13.07c0-.81.296-1.587.824-2.16a2.703 2.703 0 0 1 1.987-.894c.746 0 1.46.321 1.988.894.527.573.823 1.35.823 2.16v15.5a5.024 5.024 0 0 1 1.49 1.841 5.49 5.49 0 0 1 .533 2.382Z" fill="#2D3440"/><path d="M23.534 29.638V13.14c0-.267-.098-.524-.272-.713a.892.892 0 0 0-.656-.295.892.892 0 0 0-.656.295 1.053 1.053 0 0 0-.272.713v16.498a2.85 2.85 0 0 0-1.473 1.321A3.246 3.246 0 0 0 19.863 33c.11.703.447 1.341.949 1.8.502.46 1.137.713 1.794.713.656 0 1.292-.252 1.794-.712.502-.46.838-1.098.949-1.8a3.246 3.246 0 0 0-.343-2.042 2.85 2.85 0 0 0-1.473-1.32ZM34.667 11.94H29.1v2.016h5.567v-2.015ZM34.667 15.972H29.1v2.016h5.567v-2.016ZM34.667 20.003H29.1v2.016h5.567v-2.016ZM34.667 24.035H29.1v2.015h5.567v-2.015Z" fill="#2D3440"/></svg>