<svg width="28" height="28" fill="none" xmlns="http://www.w3.org/2000/svg"><path fill-rule="evenodd" clip-rule="evenodd" d="M26 14c0 6.627-5.373 12-12 12S2 20.627 2 14 7.373 2 14 2s12 5.373 12 12Zm-11.412 2.975h-.717s-1.582.083-2.976-1.188c-1.52-1.388-2.863-4.14-2.863-4.14s-.077-.18.007-.268c.095-.098.352-.104.352-.104l1.715-.01s.161.024.277.098a.476.476 0 0 1 .149.176s.277.615.644 1.17c.716 1.085 1.05 1.322 1.293 1.206.354-.17.248-1.533.248-1.533s.007-.495-.178-.716c-.143-.17-.414-.22-.533-.235-.096-.011.062-.207.267-.295.309-.133.854-.14 1.498-.135.501.005.645.032.842.074.455.096.44.405.41 1.07-.01.2-.02.43-.02.697 0 .06-.002.124-.004.19-.01.34-.023.73.233.876.132.074.453.011 1.256-1.185.381-.566.667-1.233.667-1.233s.062-.119.16-.17c.098-.052.232-.036.232-.036l1.805-.01s.542-.056.63.158c.091.226-.203.751-.94 1.612-.696.813-1.036 1.115-1.01 1.38.02.196.242.372.67.72.888.722 1.124 1.101 1.18 1.192a.447.447 0 0 0 .011.016c.398.578-.44.623-.44.623l-1.603.02s-.345.06-.798-.214c-.237-.142-.469-.375-.69-.597-.337-.339-.649-.652-.915-.578-.447.124-.433.967-.433.967s.004.18-.098.276c-.11.105-.328.126-.328.126Z" fill="#FCFCFC"/><path d="M14 24C8.477 24 4 19.523 4 14H0c0 7.732 6.268 14 14 14v-4Zm10-10c0 5.523-4.477 10-10 10v4c7.732 0 14-6.268 14-14h-4ZM14 4c5.523 0 10 4.477 10 10h4c0-7.732-6.268-14-14-14v4Zm0-4C6.268 0 0 6.268 0 14h4C4 8.477 8.477 4 14 4V0Z" fill="#FCFCFC" fill-opacity=".2"/></svg>