<svg width="16" height="16" fill="none" xmlns="http://www.w3.org/2000/svg"><path fill-rule="evenodd" clip-rule="evenodd" d="M16 8A8 8 0 1 1 0 8a8 8 0 0 1 16 0ZM8.392 9.983h-.478s-1.055.056-1.984-.792c-1.013-.925-1.908-2.76-1.908-2.76s-.052-.12.004-.178c.063-.066.235-.07.235-.07l1.143-.006s.108.016.185.065c.063.041.099.118.099.118s.185.41.43.78c.477.723.7.881.861.803.237-.112.166-1.022.166-1.022s.004-.33-.12-.477c-.095-.114-.275-.147-.354-.156-.065-.008.041-.139.178-.198.206-.088.569-.093.998-.09.334.004.43.022.561.05.304.064.294.27.274.714a9.697 9.697 0 0 0-.013.464l-.003.126c-.007.228-.015.488.156.585.087.05.301.007.837-.79.254-.378.444-.822.444-.822s.042-.08.107-.113c.066-.035.155-.024.155-.024l1.203-.007s.361-.038.42.105c.061.15-.135.5-.627 1.075-.463.541-.69.743-.672.92.013.13.16.247.445.48.592.481.75.734.788.794a.326.326 0 0 0 .007.01c.265.386-.294.416-.294.416l-1.069.013s-.23.04-.531-.142c-.158-.095-.313-.25-.46-.398-.225-.226-.433-.435-.61-.386-.298.083-.289.646-.289.646s.002.12-.066.184c-.073.07-.218.083-.218.083Z" fill="#2D3440"/></svg>